<svg width="200" height="200" viewBox="0 0 200 200" xmlns="http://www.w3.org/2000/svg">
  <!-- Define reusable assets: Gradients and Filters -->
  <defs>
    <!-- Radial Gradient for the Golden Glow -->
    <radialGradient id="jarvisGlow" cx="50%" cy="50%" r="50%" fx="50%" fy="50%">
      <stop offset="0%" style="stop-color:rgb(255,215,0);stop-opacity:1" />
      <stop offset="70%" style="stop-color:rgb(255,140,0);stop-opacity:1" />
      <stop offset="100%" style="stop-color:rgb(139,69,19);stop-opacity:0.8" />
    </radialGradient>

    <!-- Filter for a strong light blur (The Glow) -->
    <filter id="glow" x="-50%" y="-50%" width="200%" height="200%">
      <feGaussianBlur in="SourceGraphic" stdDeviation="5" result="blur" />
      <feMerge>
        <feMergeNode in="blur" />
        <feMergeNode in="SourceGraphic" />
      </feMerge>
    </filter>
  </defs>


  <!-- Spherical Base: Increased radius from 75 to 85 -->
  <circle cx="100" cy="100" r="85" fill="none" stroke="url(#jarvisGlow)" stroke-width="1" opacity="0.6"/>

  <!-- Inner Holographic Rings (Layered structure) -->
  <!-- Ring 1: Stronger central ring, increased radius from 45 to 55 -->
  <circle cx="100" cy="100" r="55" fill="none" stroke="#FFD700" stroke-width="1.5" filter="url(#glow)"/>

  <!-- Ring 2: Dotted/Dashed ring, increased radius from 65 to 75 -->
  <circle cx="100" cy="100" r="75" fill="none" stroke="#FFA500" stroke-width="0.8" stroke-dasharray="4 8" transform="rotate(30 100 100)"/>

  <!-- Radial Spokes / Axis Lines (Suggesting structure and data transmission), endpoints extended to 180 -->
  <g stroke="#FF8C00" stroke-width="0.7" opacity="0.7">
    <path d="M 100 100 L 180 100" transform="rotate(0 100 100)"/>
    <path d="M 100 100 L 180 100" transform="rotate(45 100 100)"/>
    <path d="M 100 100 L 180 100" transform="rotate(90 100 100)"/>
    <path d="M 100 100 L 180 100" transform="rotate(135 100 100)"/>
    <path d="M 100 100 L 180 100" transform="rotate(180 100 100)"/>
    <path d="M 100 100 L 180 100" transform="rotate(225 100 100)"/>
  </g>

  <!-- Chaotic/Circuit Overlay (Simplified paths to mimic the complex network), path coordinates adjusted -->
  <path d="M 50 100 C 50 30, 150 30, 150 100 C 150 170, 50 170, 50 100 Z" fill="none" stroke="#FFD700" stroke-width="1" opacity="0.5" filter="url(#glow)"/>
  <!-- Arcs increased radius from 70 to 80 -->
  <path d="M 180 100 A 80 80 0 0 1 100 180" fill="none" stroke="#FFD700" stroke-width="1.5" opacity="0.8"/>
  <path d="M 100 20 A 80 80 0 0 1 20 100" fill="none" stroke="#FFD700" stroke-width="1.5" opacity="0.8"/>


  <!-- Central Energy Core (The brightest spot) -->
  <circle cx="100" cy="100" r="10" fill="#FFD700" filter="url(#glow)"/>
  <circle cx="100" cy="100" r="3" fill="#FFFFFF" opacity="0.9"/>

</svg>